<svg id="Körber" xmlns="http://www.w3.org/2000/svg" viewBox="0.00 0.00 1700.00 1000.00" xmlns:c2pa="http://c2pa.org/manifest"><metadata><c2pa:manifest>AAAWgmp1bWIAAAAeanVtZGMycGEAEQAQgAAAqgA4m3EDYzJwYQAAABZcanVtYgAAAEdqdW1kYzJtYQARABCAAACqADibcQN1cm46YzJwYTpiMzE4NjM3MC0yNGQ3LTQyNzktOTY5YS0wOTg3YTVmMzZiMDgAAAADl2p1bWIAAAApanVtZGMyYXMAEQAQgAAAqgA4m3EDYzJwYS5hc3NlcnRpb25zAAAAALxqdW1iAAAARGp1bWRjYm9yABEAEIAAAKoAOJtxE2MycGEuaW5ncmVkaWVudC52MwAAAAAYYzJzaIq4/NnW0YKRGg0+gIzPXX4AAABwY2JvcqNpZGM6Zm9ybWF0bWltYWdlL3N2Zyt4bWxqaW5zdGFuY2VJRHgseG1wOmlpZDpkYmUwMThjYi00ODJjLTQ5NzItYWM1YS02MTFiMzkxOTFkNmVscmVsYXRpb25zaGlwaHBhcmVudE9mAAAB4mp1bWIAAABBanVtZGNib3IAEQAQgAAAqgA4m3ETYzJwYS5hY3Rpb25zLnYyAAAAABhjMnNoP0N+4ctoO0L5lOxaUp0j+AAAAZljYm9yomdhY3Rpb25zgqJmYWN0aW9ua2MycGEub3BlbmVkanBhcmFtZXRlcnOha2luZ3JlZGllbnRzgaJjdXJseC1zZWxmI2p1bWJmPWMycGEuYXNzZXJ0aW9ucy9jMnBhLmluZ3JlZGllbnQudjNkaGFzaFggf1bQND1uVXTlY28ebMyPTolB6kXUcDiSGClj5YDXVjakZmFjdGlvbngdY29tLmFudGhyb3BpYy5jbGF1ZGUucHJvdmlkZWRqcGFyYW1ldGVyc6F4H2NvbS5hbnRocm9waWMub3JpZ2luLWNvbmZpZGVuY2VndW5rbm93bmtkZXNjcmlwdGlvbnhmQ2xhdWRlIHByb3ZpZGVkIHRoaXMgZmlsZSBhdCB0aGUgcmVxdWVzdCBvZiBhIHVzZXIgYW5kIG1heSBoYXZlIGNyZWF0ZWQgb3IgbW9kaWZpZWQgdGhlIGZpbGUgY29udGVudHMubXNvZnR3YXJlQWdlbnShZG5hbWVmQ2xhdWRlcmFsbEFjdGlvbnNJbmNsdWRlZPUAAADIanVtYgAAAEBqdW1kY2JvcgARABCAAACqADibcRNjMnBhLmhhc2guZGF0YQAAAAAYYzJzaI1nWfPKCMSoAjx6OphXMCwAAACAY2JvcqVjYWxnZnNoYTI1NmNwYWRNAAAAAAAAAAAAAAAAAGRoYXNoWCASI1t/b4sRB5zQ87XNnxvRYAEQ3UyH6GHg6TBH3oTyvGRuYW1lbmp1bWJmIG1hbmlmZXN0amV4Y2x1c2lvbnOBomVzdGFydBiYZmxlbmd0aBkeBAAAAj5qdW1iAAAAJ2p1bWRjMmNsABEAEIAAAKoAOJtxA2MycGEuY2xhaW0udjIAAAACD2Nib3KlY2FsZ2ZzaGEyNTZpc2lnbmF0dXJleE1zZWxmI2p1bWJmPS9jMnBhL3VybjpjMnBhOmIzMTg2MzcwLTI0ZDctNDI3OS05NjlhLTA5ODdhNWYzNmIwOC9jMnBhLnNpZ25hdHVyZWppbnN0YW5jZUlEeCx4bXA6aWlkOmE0MTc2NmMzLTNiMGItNGEyMi05N2M5LTZkMDc1MGM0ODljMXJjcmVhdGVkX2Fzc2VydGlvbnODomN1cmx4LXNlbGYjanVtYmY9YzJwYS5hc3NlcnRpb25zL2MycGEuaW5ncmVkaWVudC52M2RoYXNoWCB/VtA0PW5VdOVjbx5szI9OiUHqRdRwOJIYKWPlgNdWNqJjdXJseCpzZWxmI2p1bWJmPWMycGEuYXNzZXJ0aW9ucy9jMnBhLmFjdGlvbnMudjJkaGFzaFggEfY6rzwVGakxXyOVYw5IgCy/wc1mst+yUb4eSJLo5/miY3VybHgpc2VsZiNqdW1iZj1jMnBhLmFzc2VydGlvbnMvYzJwYS5oYXNoLmRhdGFkaGFzaFggLaesXGp8RtjxdN+GcFWOQDuZZIhIoNFH60dn41eAVCF0Y2xhaW1fZ2VuZXJhdG9yX2luZm+jZG5hbWVvQW50aHJvcGljIEZpbGVzZ3ZlcnNpb25lMS4wLjBrc3BlY1ZlcnNpb25lMi40LjAAABA4anVtYgAAAChqdW1kYzJjcwARABCAAACqADibcQNjMnBhLnNpZ25hdHVyZQAAABAIY2JvctKEWQISogEmGCFZAgowggIGMIIBjaADAgECAhRA5aAK7sI50L64g/oGQgU9Z1UTADAKBggqhkjOPQQDAzBJMRcwFQYDVQQKEw5BbnRocm9waWMsIFBCQzEuMCwGA1UEAxMlQW50aHJvcGljIENvbnRlbnQgQ3JlZGVudGlhbHMgUm9vdCBDQTAeFw0yNjA4MDcxODQzNTZaFw0yODA4MDYxOTQzNTZaMEQxFzAVBgNVBAoTDkFudGhyb3BpYywgUEJDMSkwJwYDVQQDEyBBbnRocm9waWMgQ2xhdWRlIENvbnRlbnQgU2lnbmluZzBZMBMGByqGSM49AgEGCCqGSM49AwEHA0IABJh6CmvLUBgFFNU0vUKlOVtE6djd17L5SuwX0LemFisBM3dkd/3cyjxFA3Qo5S46fX0/ihY0VZ7mfb9KF703t5OjWDBWMA4GA1UdDwEB/wQEAwIHgDAVBgNVHSUEDjAMBgorBgEEAYPoXgIBMAwGA1UdEwEB/wQCMAAwHwYDVR0jBBgwFoAUzlHiBIFOZFsj+OPEz5o+nMHXXMIwCgYIKoZIzj0EAwMDZwAwZAIwMXMdFJ4BetLLVY7ORuE9noqbbAZOZn/aArXyTwFAZfKrPzxF2vPoJNf1+UCdg1XGAjBwX1zd9WGqYkqmL5SFqw1QySjr1zJfpJM9+1rdDwSPLMOPOjKuiXjoU/pUUeG9RwmhY3BhZFkNngAAAAAAAAAAAAAAAAAAAAAAAAAAAAAAAAAAAAAAAAAAAAAAAAAAAAAAAAAAAAAAAAAAAAAAAAAAAAAAAAAAAAAAAAAAAAAAAAAAAAAAAAAAAAAAAAAAAAAAAAAAAAAAAAAAAAAAAAAAAAAAAAAAAAAAAAAAAAAAAAAAAAAAAAAAAAAAAAAAAAAAAAAAAAAAAAAAAAAAAAAAAAAAAAAAAAAAAAAAAAAAAAAAAAAAAAAAAAAAAAAAAAAAAAAAAAAAAAAAAAAAAAAAAAAAAAAAAAAAAAAAAAAAAAAAAAAAAAAAAAAAAAAAAAAAAAAAAAAAAAAAAAAAAAAAAAAAAAAAAAAAAAAAAAAAAAAAAAAAAAAAAAAAAAAAAAAAAAAAAAAAAAAAAAAAAAAAAAAAAAAAAAAAAAAAAAAAAAAAAAAAAAAAAAAAAAAAAAAAAAAAAAAAAAAAAAAAAAAAAAAAAAAAAAAAAAAAAAAAAAAAAAAAAAAAAAAAAAAAAAAAAAAAAAAAAAAAAAAAAAAAAAAAAAAAAAAAAAAAAAAAAAAAAAAAAAAAAAAAAAAAAAAAAAAAAAAAAAAAAAAAAAAAAAAAAAAAAAAAAAAAAAAAAAAAAAAAAAAAAAAAAAAAAAAAAAAAAAAAAAAAAAAAAAAAAAAAAAAAAAAAAAAAAAAAAAAAAAAAAAAAAAAAAAAAAAAAAAAAAAAAAAAAAAAAAAAAAAAAAAAAAAAAAAAAAAAAAAAAAAAAAAAAAAAAAAAAAAAAAAAAAAAAAAAAAAAAAAAAAAAAAAAAAAAAAAAAAAAAAAAAAAAAAAAAAAAAAAAAAAAAAAAAAAAAAAAAAAAAAAAAAAAAAAAAAAAAAAAAAAAAAAAAAAAAAAAAAAAAAAAAAAAAAAAAAAAAAAAAAAAAAAAAAAAAAAAAAAAAAAAAAAAAAAAAAAAAAAAAAAAAAAAAAAAAAAAAAAAAAAAAAAAAAAAAAAAAAAAAAAAAAAAAAAAAAAAAAAAAAAAAAAAAAAAAAAAAAAAAAAAAAAAAAAAAAAAAAAAAAAAAAAAAAAAAAAAAAAAAAAAAAAAAAAAAAAAAAAAAAAAAAAAAAAAAAAAAAAAAAAAAAAAAAAAAAAAAAAAAAAAAAAAAAAAAAAAAAAAAAAAAAAAAAAAAAAAAAAAAAAAAAAAAAAAAAAAAAAAAAAAAAAAAAAAAAAAAAAAAAAAAAAAAAAAAAAAAAAAAAAAAAAAAAAAAAAAAAAAAAAAAAAAAAAAAAAAAAAAAAAAAAAAAAAAAAAAAAAAAAAAAAAAAAAAAAAAAAAAAAAAAAAAAAAAAAAAAAAAAAAAAAAAAAAAAAAAAAAAAAAAAAAAAAAAAAAAAAAAAAAAAAAAAAAAAAAAAAAAAAAAAAAAAAAAAAAAAAAAAAAAAAAAAAAAAAAAAAAAAAAAAAAAAAAAAAAAAAAAAAAAAAAAAAAAAAAAAAAAAAAAAAAAAAAAAAAAAAAAAAAAAAAAAAAAAAAAAAAAAAAAAAAAAAAAAAAAAAAAAAAAAAAAAAAAAAAAAAAAAAAAAAAAAAAAAAAAAAAAAAAAAAAAAAAAAAAAAAAAAAAAAAAAAAAAAAAAAAAAAAAAAAAAAAAAAAAAAAAAAAAAAAAAAAAAAAAAAAAAAAAAAAAAAAAAAAAAAAAAAAAAAAAAAAAAAAAAAAAAAAAAAAAAAAAAAAAAAAAAAAAAAAAAAAAAAAAAAAAAAAAAAAAAAAAAAAAAAAAAAAAAAAAAAAAAAAAAAAAAAAAAAAAAAAAAAAAAAAAAAAAAAAAAAAAAAAAAAAAAAAAAAAAAAAAAAAAAAAAAAAAAAAAAAAAAAAAAAAAAAAAAAAAAAAAAAAAAAAAAAAAAAAAAAAAAAAAAAAAAAAAAAAAAAAAAAAAAAAAAAAAAAAAAAAAAAAAAAAAAAAAAAAAAAAAAAAAAAAAAAAAAAAAAAAAAAAAAAAAAAAAAAAAAAAAAAAAAAAAAAAAAAAAAAAAAAAAAAAAAAAAAAAAAAAAAAAAAAAAAAAAAAAAAAAAAAAAAAAAAAAAAAAAAAAAAAAAAAAAAAAAAAAAAAAAAAAAAAAAAAAAAAAAAAAAAAAAAAAAAAAAAAAAAAAAAAAAAAAAAAAAAAAAAAAAAAAAAAAAAAAAAAAAAAAAAAAAAAAAAAAAAAAAAAAAAAAAAAAAAAAAAAAAAAAAAAAAAAAAAAAAAAAAAAAAAAAAAAAAAAAAAAAAAAAAAAAAAAAAAAAAAAAAAAAAAAAAAAAAAAAAAAAAAAAAAAAAAAAAAAAAAAAAAAAAAAAAAAAAAAAAAAAAAAAAAAAAAAAAAAAAAAAAAAAAAAAAAAAAAAAAAAAAAAAAAAAAAAAAAAAAAAAAAAAAAAAAAAAAAAAAAAAAAAAAAAAAAAAAAAAAAAAAAAAAAAAAAAAAAAAAAAAAAAAAAAAAAAAAAAAAAAAAAAAAAAAAAAAAAAAAAAAAAAAAAAAAAAAAAAAAAAAAAAAAAAAAAAAAAAAAAAAAAAAAAAAAAAAAAAAAAAAAAAAAAAAAAAAAAAAAAAAAAAAAAAAAAAAAAAAAAAAAAAAAAAAAAAAAAAAAAAAAAAAAAAAAAAAAAAAAAAAAAAAAAAAAAAAAAAAAAAAAAAAAAAAAAAAAAAAAAAAAAAAAAAAAAAAAAAAAAAAAAAAAAAAAAAAAAAAAAAAAAAAAAAAAAAAAAAAAAAAAAAAAAAAAAAAAAAAAAAAAAAAAAAAAAAAAAAAAAAAAAAAAAAAAAAAAAAAAAAAAAAAAAAAAAAAAAAAAAAAAAAAAAAAAAAAAAAAAAAAAAAAAAAAAAAAAAAAAAAAAAAAAAAAAAAAAAAAAAAAAAAAAAAAAAAAAAAAAAAAAAAAAAAAAAAAAAAAAAAAAAAAAAAAAAAAAAAAAAAAAAAAAAAAAAAAAAAAAAAAAAAAAAAAAAAAAAAAAAAAAAAAAAAAAAAAAAAAAAAAAAAAAAAAAAAAAAAAAAAAAAAAAAAAAAAAAAAAAAAAAAAAAAAAAAAAAAAAAAAAAAAAAAAAAAAAAAAAAAAAAAAAAAAAAAAAAAAAAAAAAAAAAAAAAAAAAAAAAAAAAAAAAAAAAAAAAAAAAAAAAAAAAAAAAAAAAAAAAAAAAAAAAAAAAAAAAAAAAAAAAAAAAAAAAAAAAAAAAAAAAAAAAAAAAAAAAAAAAAAAAAAAAAAAAAAAAAAAAAAAAAAAAAAAAAAAAAAAAAAAAAAAAAAAAAAAAAAAAAAAAAAAAAAAAAAAAAAAAAAAAAAAAAAAAAAAAAAAAAAAAAAAAAAAAAAAAAAAAAAAAAAAAAAAAAAAAAAAAAAAAAAAAAAAAAAAAAAAAAAAAAAAAAAAAAAAAAAAAAAAAAAAAAAAAAAAAAAAAAAAAAAAAAAAAAAAAAAAAAAAAAAAAAAAAAAAAAAAAAAAAAAAAAAAAAAAAAAAAAAAAAAAAAAAAAAAAAAAAAAAAAAAAAAAAAAAAAAAAAAAAAAAAAAAAAAAAAAAAAAAAAAAAAAAAAAAAAAAAAAAAAAAAAAAAAAAAAAAAAAAAAAAAAAAAAAAAAAAAAAAAAAAAAAAAAAAAAAAAAAAAAAAAAAAAAAAAAAAAAAAAAAAAAAAAAAAAAAAAAAAAAAAAAAAAAAAAAAAAAAAAAAAAAAAAAAAAAAAAAAAAAAAAAAAAAAAAAAAAAAAAAAAAAAAAAAAAAAAAAAAAAAAAAAAAAAAAAAAAAAAAAAAAAAAAAAAAAAAAAAAAAAAAAAAAAAAAAAAAAAAAAAAAAAAAAAAAAAAAAAAAAAAAAAAAAAAAAAAAAAAAAAAAAAAAAAAAAAAAAAAAAAAAAAAAAAAAAAAAAAAAAAAAAAAAAAAAAAAAAAAAAAAAAAAAAAAAAAAAAAAAAAAAAAAAAAAAAAAAAAAAAAAAAAAAAAAAAAAAAAAAAAAAAAAAAAAAAAAAAAAAAAAAAAAAAAAAAAAAAAAAAAAAAAAAAAAAAAAAAAAAAAAAAAAAAAAAAAAAAAAAAAAAAAAAAAAAAAAAAAAAAAAAAAAAAAAAAAAAAAAAAAAAAAAAAAAAAAAAAAAAAAAAAAAAAAAAAAAAAAAAAAAAAAAAAAAAAAAAAAAAAAAAAAAAAAAAAAAAAAAAAAAAAAAAAAAAAAAAAAAAAAAAAAAAAAAAAAAAAAAAAAAAAAAAAAAAAAAAAAAAAAAAAAAAAAAAAAAAAAAAAAAAAAAAAAAAAAAAAAAAAAAAAAAAAAAAAAAAAAAAAAAAAAAAAAAAAAAAAAAAAAAAAAAAAAAAAAAAAAAAAAAAAAAAAAAAAAAAAAAAAAAAAAAAAAAAAAAAAAAAAAAAAAAAAAAAAAAAAAAAAAAAAAAAAAAAAAAAAAAAAAAAAAAAAAAAAAAAAAAAAAAAAAAAAAAAAAAAAAAAAAAAAAAAAAAAAAAAAAAAAAAAAAAAAAAAAAAAAAAAAAAAAAAAAAAAAAAAAAAAAAAAAAAAAAAAAAAAAAAAAAAAAAAAAAAAAAAAAAAAAAAAAAAAAAAAAAAAAAAAAAAAAAAAAAAAAAAAAAAAAAAAAAAAAAAAAAAAAAAAAAAAAAAAAAAAAAAAAAAAAAAAAAAAAAAAAAAAAAAAAAAAAAAAAAAAAAAAAAAAAAAAAAAAAAAAAAAAAAAAAAAPZYQNV7dh1akXDKE5+ttyErhGt45x5pOE5jDgNWOEBIbvzkR/YVovz9ChhwSwPmdcW3ougrH67q1wPGNQX7kkVlT7U=</c2pa:manifest></metadata><defs><style>.cls-1{fill:#fff;}</style></defs><title>Koerber_Logo_RGB_Black</title><path class="cls-1" d="M999.93,876.25A123.75,123.75,0,1,0,1123.68,1000,123.74,123.74,0,0,0,999.93,876.25Zm0,206.75a83,83,0,1,1,83-83A83,83,0,0,1,999.93,1083Zm700.14-583a498.34,498.34,0,0,0-350.07,143A498.34,498.34,0,0,0,999.93,500c-276.14,0-500,223.86-500,500s223.86,500,500,500A498.34,498.34,0,0,0,1350,1357a498.34,498.34,0,0,0,350.07,143c276.15,0,500-223.86,500-500S1976.22,500,1700.07,500Zm0,961c-125.76,0-239.86-50.67-323.12-132.6a500.19,500.19,0,0,0,86-139.79h-42.63A463.09,463.09,0,0,1,1350,1299.45a462.78,462.78,0,0,1-70.36-110.84H1237a500.19,500.19,0,0,0,86,139.79c-83.25,81.93-197.36,132.6-323.12,132.6-254.2,0-461-206.8-461-461s206.8-461,461-461c125.76,0,239.87,50.67,323.12,132.6a500.19,500.19,0,0,0-86,139.79h42.63A462.78,462.78,0,0,1,1350,700.55a463.09,463.09,0,0,1,70.36,110.84H1463a500.19,500.19,0,0,0-86-139.79c83.26-81.93,197.36-132.6,323.12-132.6,254.2,0,461,206.8,461,461S1954.27,1461,1700.07,1461Zm298.58-437.88c25.66-11.36,43.61-36,44.31-64.38.73-30-16.3-55.86-43.19-68.61-16.85-8-34.78-9.51-53.12-9.51h-80.53v238.74H1908v-85.77h50.84l51.18,85.79h49.16Zm2.09-67.07c0,11.91-4.94,23.24-14.44,30.57-9.26,7.15-20.89,10-32.4,10.29-10.79.31-41.38,0-45.87,0v-79.4h33c15,0,31.3-.59,44.33,8.13C1995.61,932.54,2000.74,943.9,2000.74,956.05ZM986.86,826.56a23,23,0,1,1-23-23A23,23,0,0,1,986.86,826.56Zm72.13,0a23,23,0,1,1-23-23A23,23,0,0,1,1059,826.56Zm246,196.56c25.66-11.36,43.61-36,44.31-64.38.73-30-16.3-55.86-43.19-68.61-16.85-8-34.78-9.51-53.12-9.51H1172.5v238.74h41.91v-85.77h50.84l51.18,85.79h49.16Zm2.09-67.07c0,11.91-4.94,23.24-14.44,30.57-9.26,7.15-20.89,10-32.4,10.29-10.79.31-41.38,0-45.87,0v-79.4h33c15,0,31.3-.59,44.33,8.13C1302,932.54,1307.12,943.9,1307.12,956.05Zm279.64,59.16A58.4,58.4,0,0,0,1567,995.92a53.61,53.61,0,0,0,17.9-18c5.27-8.85,7.93-19.1,7.93-30.44,0-20.85-7.3-37.42-21.7-49.25-14.2-11.67-33.65-17.59-57.83-17.59H1415v238.76h99.57c24.37,0,44.15-6,58.77-17.89,14.83-12,22.35-29.58,22.35-52.12C1595.69,1036.1,1592.68,1024.6,1586.76,1015.21Zm-42.49,56.84c-6.84,5.88-16.83,8.87-29.7,8.87h-58.89v-64H1512c15.17,0,26.17,2.87,32.71,8.54s9.63,13.25,9.63,23.32C1554.37,1058.59,1551.07,1066.21,1544.27,1072.05Zm-1.57-102.9c-5.88,5.69-15.45,8.58-28.44,8.58h-58.58v-59h57.62c12.9,0,22.66,2.58,29,7.67s9.21,11.85,9.21,21C1551.51,956.32,1548.63,963.42,1542.7,969.15Zm150.53-48.74v59.38h97.92v39.78h-97.92v59.7h117.92v40.1H1652.5V880.63h158.65v39.78ZM750.36,1000l119.38,119.34-53.91,0L709.41,1013.75v105.6H667.5V880.61h41.91V986.79L815.85,880.61h53.91Z" transform="translate(-499.93 -500)"/><path d="M999.93,876.25A123.75,123.75,0,1,0,1123.68,1000,123.74,123.74,0,0,0,999.93,876.25Zm0,206.75a83,83,0,1,1,83-83A83,83,0,0,1,999.93,1083Zm700.14-583a498.34,498.34,0,0,0-350.07,143A498.34,498.34,0,0,0,999.93,500c-276.14,0-500,223.86-500,500s223.86,500,500,500A498.34,498.34,0,0,0,1350,1357a498.34,498.34,0,0,0,350.07,143c276.15,0,500-223.86,500-500S1976.22,500,1700.07,500Zm0,961c-125.76,0-239.86-50.67-323.12-132.6a500.19,500.19,0,0,0,86-139.79h-42.63A463.09,463.09,0,0,1,1350,1299.45a462.78,462.78,0,0,1-70.36-110.84H1237a500.19,500.19,0,0,0,86,139.79c-83.25,81.93-197.36,132.6-323.12,132.6-254.2,0-461-206.8-461-461s206.8-461,461-461c125.76,0,239.87,50.67,323.12,132.6a500.19,500.19,0,0,0-86,139.79h42.63A462.78,462.78,0,0,1,1350,700.55a463.09,463.09,0,0,1,70.36,110.84H1463a500.19,500.19,0,0,0-86-139.79c83.26-81.93,197.36-132.6,323.12-132.6,254.2,0,461,206.8,461,461S1954.27,1461,1700.07,1461Zm298.58-437.88c25.66-11.36,43.61-36,44.31-64.38.73-30-16.3-55.86-43.19-68.61-16.85-8-34.78-9.51-53.12-9.51h-80.53v238.74H1908v-85.77h50.84l51.18,85.79h49.16Zm2.09-67.07c0,11.91-4.94,23.24-14.44,30.57-9.26,7.15-20.89,10-32.4,10.29-10.79.31-41.38,0-45.87,0v-79.4h33c15,0,31.3-.59,44.33,8.13C1995.61,932.54,2000.74,943.9,2000.74,956.05ZM986.86,826.56a23,23,0,1,1-23-23A23,23,0,0,1,986.86,826.56Zm72.13,0a23,23,0,1,1-23-23A23,23,0,0,1,1059,826.56Zm246,196.56c25.66-11.36,43.61-36,44.31-64.38.73-30-16.3-55.86-43.19-68.61-16.85-8-34.78-9.51-53.12-9.51H1172.5v238.74h41.91v-85.77h50.84l51.18,85.79h49.16Zm2.09-67.07c0,11.91-4.94,23.24-14.44,30.57-9.26,7.15-20.89,10-32.4,10.29-10.79.31-41.38,0-45.87,0v-79.4h33c15,0,31.3-.59,44.33,8.13C1302,932.54,1307.12,943.9,1307.12,956.05Zm279.64,59.16A58.4,58.4,0,0,0,1567,995.92a53.61,53.61,0,0,0,17.9-18c5.27-8.85,7.93-19.1,7.93-30.44,0-20.85-7.3-37.42-21.7-49.25-14.2-11.67-33.65-17.59-57.83-17.59H1415v238.76h99.57c24.37,0,44.15-6,58.77-17.89,14.83-12,22.35-29.58,22.35-52.12C1595.69,1036.1,1592.68,1024.6,1586.76,1015.21Zm-42.49,56.84c-6.84,5.88-16.83,8.87-29.7,8.87h-58.89v-64H1512c15.17,0,26.17,2.87,32.71,8.54s9.63,13.25,9.63,23.32C1554.37,1058.59,1551.07,1066.21,1544.27,1072.05Zm-1.57-102.9c-5.88,5.69-15.45,8.58-28.44,8.58h-58.58v-59h57.62c12.9,0,22.66,2.58,29,7.67s9.21,11.85,9.21,21C1551.51,956.32,1548.63,963.42,1542.7,969.15Zm150.53-48.74v59.38h97.92v39.78h-97.92v59.7h117.92v40.1H1652.5V880.63h158.65v39.78ZM750.36,1000l119.38,119.34-53.91,0L709.41,1013.75v105.6H667.5V880.61h41.91V986.79L815.85,880.61h53.91Z" transform="translate(-499.93 -500)"/></svg>