<svg viewBox="13.00 21.00 869.00 166.00" fill="none" xmlns="http://www.w3.org/2000/svg" xmlns:c2pa="http://c2pa.org/manifest"><metadata><c2pa:manifest>AAAWgmp1bWIAAAAeanVtZGMycGEAEQAQgAAAqgA4m3EDYzJwYQAAABZcanVtYgAAAEdqdW1kYzJtYQARABCAAACqADibcQN1cm46YzJwYTpkMTY2YzAzNC1hZDc3LTRkMDQtOGFmYy0yNTBhYTFjMTRlYmQAAAADl2p1bWIAAAApanVtZGMyYXMAEQAQgAAAqgA4m3EDYzJwYS5hc3NlcnRpb25zAAAAALxqdW1iAAAARGp1bWRjYm9yABEAEIAAAKoAOJtxE2MycGEuaW5ncmVkaWVudC52MwAAAAAYYzJzaJqqiQxY51krv8TSrt85uQAAAABwY2JvcqNpZGM6Zm9ybWF0bWltYWdlL3N2Zyt4bWxqaW5zdGFuY2VJRHgseG1wOmlpZDpmMjQ2NTM0Yi02YWQ1LTQ2YjQtOWUyYS0zMGRhMmFiOTg2M2NscmVsYXRpb25zaGlwaHBhcmVudE9mAAAB4mp1bWIAAABBanVtZGNib3IAEQAQgAAAqgA4m3ETYzJwYS5hY3Rpb25zLnYyAAAAABhjMnNodQBP+UcraesVb2WKM6qOaQAAAZljYm9yomdhY3Rpb25zgqJmYWN0aW9ua2MycGEub3BlbmVkanBhcmFtZXRlcnOha2luZ3JlZGllbnRzgaJjdXJseC1zZWxmI2p1bWJmPWMycGEuYXNzZXJ0aW9ucy9jMnBhLmluZ3JlZGllbnQudjNkaGFzaFggYsHYasMhf+dQHtpcFZBtJAWe0/Rnwf5TDUjVYIan3uikZmFjdGlvbngdY29tLmFudGhyb3BpYy5jbGF1ZGUucHJvdmlkZWRqcGFyYW1ldGVyc6F4H2NvbS5hbnRocm9waWMub3JpZ2luLWNvbmZpZGVuY2VndW5rbm93bmtkZXNjcmlwdGlvbnhmQ2xhdWRlIHByb3ZpZGVkIHRoaXMgZmlsZSBhdCB0aGUgcmVxdWVzdCBvZiBhIHVzZXIgYW5kIG1heSBoYXZlIGNyZWF0ZWQgb3IgbW9kaWZpZWQgdGhlIGZpbGUgY29udGVudHMubXNvZnR3YXJlQWdlbnShZG5hbWVmQ2xhdWRlcmFsbEFjdGlvbnNJbmNsdWRlZPUAAADIanVtYgAAAEBqdW1kY2JvcgARABCAAACqADibcRNjMnBhLmhhc2guZGF0YQAAAAAYYzJzaJqD7iKrkWF+T998pz9YlZ8AAACAY2JvcqVjYWxnZnNoYTI1NmNwYWRNAAAAAAAAAAAAAAAAAGRoYXNoWCBZES6+hTF7cH594vr0ADKYSu8Y6qIFSsHvkW4mcRWvOWRuYW1lbmp1bWJmIG1hbmlmZXN0amV4Y2x1c2lvbnOBomVzdGFydBiXZmxlbmd0aBkeBAAAAj5qdW1iAAAAJ2p1bWRjMmNsABEAEIAAAKoAOJtxA2MycGEuY2xhaW0udjIAAAACD2Nib3KlY2FsZ2ZzaGEyNTZpc2lnbmF0dXJleE1zZWxmI2p1bWJmPS9jMnBhL3VybjpjMnBhOmQxNjZjMDM0LWFkNzctNGQwNC04YWZjLTI1MGFhMWMxNGViZC9jMnBhLnNpZ25hdHVyZWppbnN0YW5jZUlEeCx4bXA6aWlkOjA3MjgzMWM5LWRiY2MtNDYyMC1hMDI4LTAwMjYxZDgzZWUzMXJjcmVhdGVkX2Fzc2VydGlvbnODomN1cmx4LXNlbGYjanVtYmY9YzJwYS5hc3NlcnRpb25zL2MycGEuaW5ncmVkaWVudC52M2RoYXNoWCBiwdhqwyF/51Ae2lwVkG0kBZ7T9GfB/lMNSNVghqfe6KJjdXJseCpzZWxmI2p1bWJmPWMycGEuYXNzZXJ0aW9ucy9jMnBhLmFjdGlvbnMudjJkaGFzaFggK/hbyJU1H8BIKNiQSiTfQbGUxtxVU6sW/3A+CnLV2A+iY3VybHgpc2VsZiNqdW1iZj1jMnBhLmFzc2VydGlvbnMvYzJwYS5oYXNoLmRhdGFkaGFzaFggIW89bN4940reZYN92ZCbsoKuvO0gE3OYCPcrehklqeJ0Y2xhaW1fZ2VuZXJhdG9yX2luZm+jZG5hbWVvQW50aHJvcGljIEZpbGVzZ3ZlcnNpb25lMS4wLjBrc3BlY1ZlcnNpb25lMi40LjAAABA4anVtYgAAAChqdW1kYzJjcwARABCAAACqADibcQNjMnBhLnNpZ25hdHVyZQAAABAIY2JvctKEWQISogEmGCFZAgowggIGMIIBjaADAgECAhRA5aAK7sI50L64g/oGQgU9Z1UTADAKBggqhkjOPQQDAzBJMRcwFQYDVQQKEw5BbnRocm9waWMsIFBCQzEuMCwGA1UEAxMlQW50aHJvcGljIENvbnRlbnQgQ3JlZGVudGlhbHMgUm9vdCBDQTAeFw0yNjA4MDcxODQzNTZaFw0yODA4MDYxOTQzNTZaMEQxFzAVBgNVBAoTDkFudGhyb3BpYywgUEJDMSkwJwYDVQQDEyBBbnRocm9waWMgQ2xhdWRlIENvbnRlbnQgU2lnbmluZzBZMBMGByqGSM49AgEGCCqGSM49AwEHA0IABJh6CmvLUBgFFNU0vUKlOVtE6djd17L5SuwX0LemFisBM3dkd/3cyjxFA3Qo5S46fX0/ihY0VZ7mfb9KF703t5OjWDBWMA4GA1UdDwEB/wQEAwIHgDAVBgNVHSUEDjAMBgorBgEEAYPoXgIBMAwGA1UdEwEB/wQCMAAwHwYDVR0jBBgwFoAUzlHiBIFOZFsj+OPEz5o+nMHXXMIwCgYIKoZIzj0EAwMDZwAwZAIwMXMdFJ4BetLLVY7ORuE9noqbbAZOZn/aArXyTwFAZfKrPzxF2vPoJNf1+UCdg1XGAjBwX1zd9WGqYkqmL5SFqw1QySjr1zJfpJM9+1rdDwSPLMOPOjKuiXjoU/pUUeG9RwmhY3BhZFkNngAAAAAAAAAAAAAAAAAAAAAAAAAAAAAAAAAAAAAAAAAAAAAAAAAAAAAAAAAAAAAAAAAAAAAAAAAAAAAAAAAAAAAAAAAAAAAAAAAAAAAAAAAAAAAAAAAAAAAAAAAAAAAAAAAAAAAAAAAAAAAAAAAAAAAAAAAAAAAAAAAAAAAAAAAAAAAAAAAAAAAAAAAAAAAAAAAAAAAAAAAAAAAAAAAAAAAAAAAAAAAAAAAAAAAAAAAAAAAAAAAAAAAAAAAAAAAAAAAAAAAAAAAAAAAAAAAAAAAAAAAAAAAAAAAAAAAAAAAAAAAAAAAAAAAAAAAAAAAAAAAAAAAAAAAAAAAAAAAAAAAAAAAAAAAAAAAAAAAAAAAAAAAAAAAAAAAAAAAAAAAAAAAAAAAAAAAAAAAAAAAAAAAAAAAAAAAAAAAAAAAAAAAAAAAAAAAAAAAAAAAAAAAAAAAAAAAAAAAAAAAAAAAAAAAAAAAAAAAAAAAAAAAAAAAAAAAAAAAAAAAAAAAAAAAAAAAAAAAAAAAAAAAAAAAAAAAAAAAAAAAAAAAAAAAAAAAAAAAAAAAAAAAAAAAAAAAAAAAAAAAAAAAAAAAAAAAAAAAAAAAAAAAAAAAAAAAAAAAAAAAAAAAAAAAAAAAAAAAAAAAAAAAAAAAAAAAAAAAAAAAAAAAAAAAAAAAAAAAAAAAAAAAAAAAAAAAAAAAAAAAAAAAAAAAAAAAAAAAAAAAAAAAAAAAAAAAAAAAAAAAAAAAAAAAAAAAAAAAAAAAAAAAAAAAAAAAAAAAAAAAAAAAAAAAAAAAAAAAAAAAAAAAAAAAAAAAAAAAAAAAAAAAAAAAAAAAAAAAAAAAAAAAAAAAAAAAAAAAAAAAAAAAAAAAAAAAAAAAAAAAAAAAAAAAAAAAAAAAAAAAAAAAAAAAAAAAAAAAAAAAAAAAAAAAAAAAAAAAAAAAAAAAAAAAAAAAAAAAAAAAAAAAAAAAAAAAAAAAAAAAAAAAAAAAAAAAAAAAAAAAAAAAAAAAAAAAAAAAAAAAAAAAAAAAAAAAAAAAAAAAAAAAAAAAAAAAAAAAAAAAAAAAAAAAAAAAAAAAAAAAAAAAAAAAAAAAAAAAAAAAAAAAAAAAAAAAAAAAAAAAAAAAAAAAAAAAAAAAAAAAAAAAAAAAAAAAAAAAAAAAAAAAAAAAAAAAAAAAAAAAAAAAAAAAAAAAAAAAAAAAAAAAAAAAAAAAAAAAAAAAAAAAAAAAAAAAAAAAAAAAAAAAAAAAAAAAAAAAAAAAAAAAAAAAAAAAAAAAAAAAAAAAAAAAAAAAAAAAAAAAAAAAAAAAAAAAAAAAAAAAAAAAAAAAAAAAAAAAAAAAAAAAAAAAAAAAAAAAAAAAAAAAAAAAAAAAAAAAAAAAAAAAAAAAAAAAAAAAAAAAAAAAAAAAAAAAAAAAAAAAAAAAAAAAAAAAAAAAAAAAAAAAAAAAAAAAAAAAAAAAAAAAAAAAAAAAAAAAAAAAAAAAAAAAAAAAAAAAAAAAAAAAAAAAAAAAAAAAAAAAAAAAAAAAAAAAAAAAAAAAAAAAAAAAAAAAAAAAAAAAAAAAAAAAAAAAAAAAAAAAAAAAAAAAAAAAAAAAAAAAAAAAAAAAAAAAAAAAAAAAAAAAAAAAAAAAAAAAAAAAAAAAAAAAAAAAAAAAAAAAAAAAAAAAAAAAAAAAAAAAAAAAAAAAAAAAAAAAAAAAAAAAAAAAAAAAAAAAAAAAAAAAAAAAAAAAAAAAAAAAAAAAAAAAAAAAAAAAAAAAAAAAAAAAAAAAAAAAAAAAAAAAAAAAAAAAAAAAAAAAAAAAAAAAAAAAAAAAAAAAAAAAAAAAAAAAAAAAAAAAAAAAAAAAAAAAAAAAAAAAAAAAAAAAAAAAAAAAAAAAAAAAAAAAAAAAAAAAAAAAAAAAAAAAAAAAAAAAAAAAAAAAAAAAAAAAAAAAAAAAAAAAAAAAAAAAAAAAAAAAAAAAAAAAAAAAAAAAAAAAAAAAAAAAAAAAAAAAAAAAAAAAAAAAAAAAAAAAAAAAAAAAAAAAAAAAAAAAAAAAAAAAAAAAAAAAAAAAAAAAAAAAAAAAAAAAAAAAAAAAAAAAAAAAAAAAAAAAAAAAAAAAAAAAAAAAAAAAAAAAAAAAAAAAAAAAAAAAAAAAAAAAAAAAAAAAAAAAAAAAAAAAAAAAAAAAAAAAAAAAAAAAAAAAAAAAAAAAAAAAAAAAAAAAAAAAAAAAAAAAAAAAAAAAAAAAAAAAAAAAAAAAAAAAAAAAAAAAAAAAAAAAAAAAAAAAAAAAAAAAAAAAAAAAAAAAAAAAAAAAAAAAAAAAAAAAAAAAAAAAAAAAAAAAAAAAAAAAAAAAAAAAAAAAAAAAAAAAAAAAAAAAAAAAAAAAAAAAAAAAAAAAAAAAAAAAAAAAAAAAAAAAAAAAAAAAAAAAAAAAAAAAAAAAAAAAAAAAAAAAAAAAAAAAAAAAAAAAAAAAAAAAAAAAAAAAAAAAAAAAAAAAAAAAAAAAAAAAAAAAAAAAAAAAAAAAAAAAAAAAAAAAAAAAAAAAAAAAAAAAAAAAAAAAAAAAAAAAAAAAAAAAAAAAAAAAAAAAAAAAAAAAAAAAAAAAAAAAAAAAAAAAAAAAAAAAAAAAAAAAAAAAAAAAAAAAAAAAAAAAAAAAAAAAAAAAAAAAAAAAAAAAAAAAAAAAAAAAAAAAAAAAAAAAAAAAAAAAAAAAAAAAAAAAAAAAAAAAAAAAAAAAAAAAAAAAAAAAAAAAAAAAAAAAAAAAAAAAAAAAAAAAAAAAAAAAAAAAAAAAAAAAAAAAAAAAAAAAAAAAAAAAAAAAAAAAAAAAAAAAAAAAAAAAAAAAAAAAAAAAAAAAAAAAAAAAAAAAAAAAAAAAAAAAAAAAAAAAAAAAAAAAAAAAAAAAAAAAAAAAAAAAAAAAAAAAAAAAAAAAAAAAAAAAAAAAAAAAAAAAAAAAAAAAAAAAAAAAAAAAAAAAAAAAAAAAAAAAAAAAAAAAAAAAAAAAAAAAAAAAAAAAAAAAAAAAAAAAAAAAAAAAAAAAAAAAAAAAAAAAAAAAAAAAAAAAAAAAAAAAAAAAAAAAAAAAAAAAAAAAAAAAAAAAAAAAAAAAAAAAAAAAAAAAAAAAAAAAAAAAAAAAAAAAAAAAAAAAAAAAAAAAAAAAAAAAAAAAAAAAAAAAAAAAAAAAAAAAAAAAAAAAAAAAAAAAAAAAAAAAAAAAAAAAAAAAAAAAAAAAAAAAAAAAAAAAAAAAAAAAAAAAAAAAAAAAAAAAAAAAAAAAAAAAAAAAAAAAAAAAAAAAAAAAAAAAAAAAAAAAAAAAAAAAAAAAAAAAAAAAAAAAAAAAAAAAAAAAAAAAAAAAAAAAAAAAAAAAAAAAAAAAAAAAAAAAAAAAAAAAAAAAAAAAAAAAAAAAAAAAAAAAAAAAAAAAAAAAAAAAAAAAAAAAAAAAAAAAAAAAAAAAAAAAAAAAAAAAAAAAAAAAAAAAAAAAAAAAAAAAAAAAAAAAAAAAAAAAAAAAAAAAAAAAAAAAAAAAAAAAAAAAAAAAAAAAAAAAAAAAAAAAAAAAAAAAAAAAAAAAAAAAAAAAAAAAAAAAAAAAAAAAAAAAAAAAAAAAAAAAAAAAAAAAAAAAAAAAAAAAAAAAAAAAAAAAAAAAAAAAAAAAAAAAAAAAAAAAAAAAAAAAAAAAAAAAAAAAAAAAAAAAAAAAAAAAAAAAAAAAAAAAAAAAAAAAAAAAAAAAAAAAAAAAAAAAAAAAAAAAAAAAAAAAAAAAAAAAAAAAAAAAAAAAAAAAAAAAAAAAAAAAAAAAAAAAAAAAAAAAAAAAAAAAAAAAAAAAAAAAAAAAAAAAAAAAAAAAAAAAAAAAAAAAAAAAAAAAAAAAAAAAAAAAAAAAAAAAAAAAAAAAAAAAAAAAAAAAAAAAAAAAAAAAAAAAAAAAAAAAAAAAAAAAAAAAAAAAAAAAAAAAAAAAAAAAAAAAAAAAAAAAAAAAAAAAAAAAAAAAAAAAAAAAAAAAAAAAAAAAAAAAAAAAAAAAAAAAAAAAAAAAAAAAAAAAAAAAAAAAAAAAAAAAAAAAAAAAAAAAAAAAAAAAAAAAAAAAAAAAAAAAAAAAAAAAAAAAAAAAAAAAAAAAAAAAAAAAAAAAAAAAAAAAAAAAAAAAAAAAAAAAAAAAAAAAAAAAAAAAAAAAAAAAAAAAAAAAAAAAAAAAAAAAAAAAAAAAAAAAAAAAAAAAAAAAAAAAAAAAAAAAAAAAAAAAAAAAAAAAAAAAAAAAAAAAAAAAAAAAAAAAAAAAAAAAAAAAAAAAAAAAAAAAAAAAAAAAAAAAAAAAAAAAAAAAAAAAAAAAAAAAAAAAAAAAAAAAAAAAAAAAAAAAAAAAAAAAAAAAAAAAAAAAAAAAAAAAAAAAAAAAAAAAAAAAAAAAAAAAAAAAAAAAAAAAAAAAAAAAAAAAAAAAAAAAAAAAAAAAAAAAAAAAAAAAAAAAAAAAAAAAAAAAAAAAAAAAAAAAAAAAAAAAAAAAAAAAAAAAAAAAAAAAAAAAAAAAAAAAAAAAAAAAAAAAAAAAAAAAAAAAAAAAAAAAAAAAAAAAAAAAAAAAAAAAAAAAAAAAAAAAAAAAAAAAAAAAAAAAAAAAAAAAAAAAAAAAAAAAAAAAAAAAAAAAAAAAAAAAAAAAAAPZYQIytJStb1OX3UvPyBwPR3DcmHw26vv4xjqHCSWSOpYZR7NQppL+1sD779IoU5F7sYIMKwlYh/nSFbknH9rr8n+8=</c2pa:manifest></metadata>
<g clip-path="url(#clip0_1415_9)">
<path d="M24.7881 35.9696C25.2042 34.417 26.4169 33.2043 27.9694 32.7883L71.1167 21.227C72.6693 20.811 74.3259 21.2548 75.4625 22.3914L107.048 53.9774C108.185 55.114 108.629 56.7706 108.213 58.3232L95.9793 103.979L50.323 116.213C48.7705 116.629 47.1139 116.185 45.9773 115.049L14.3913 83.4626C13.2547 82.326 12.8108 80.6694 13.2269 79.1168L24.7881 35.9696Z" fill="#FFAD0A"/>
<path d="M95.9819 103.981L141.638 91.747C143.191 91.331 144.847 91.7748 145.984 92.9114L177.57 124.497C178.706 125.634 179.15 127.291 178.734 128.843L167.173 171.99C166.757 173.543 165.544 174.756 163.992 175.172L120.844 186.733C119.292 187.149 117.635 186.705 116.499 185.569L84.9127 153.983C83.7762 152.846 83.3323 151.189 83.7483 149.637L95.9819 103.981Z" fill="#FFAD0A"/>
<path d="M95.9789 103.981L108.213 149.637C108.629 151.189 108.185 152.846 107.048 153.983L75.4621 185.569C74.3255 186.705 72.6689 187.149 71.1163 186.733L27.969 175.172C26.4165 174.756 25.2038 173.543 24.7877 171.99L13.2265 128.843C12.8104 127.291 13.2543 125.634 14.3909 124.497L45.9769 92.9114C47.1135 91.7748 48.7701 91.331 50.3226 91.747L95.9789 103.981Z" fill="#374CD2"/>
<path d="M163.992 32.7884C165.545 33.2044 166.758 34.4171 167.174 35.9697L178.735 79.117C179.151 80.6696 178.707 82.3261 177.57 83.4627L145.984 115.049C144.848 116.185 143.191 116.629 141.639 116.213L95.9825 103.98L83.7489 58.3233C83.3329 56.7707 83.7767 55.1141 84.9133 53.9775L116.499 22.3915C117.636 21.255 119.292 20.8111 120.845 21.2271L163.992 32.7884Z" fill="#374CD2"/>
<path opacity="0.75" d="M84.9227 53.977L95.9793 42.9702L107.037 53.9744C108.179 55.1109 108.626 56.7713 108.209 58.3276L95.9793 103.98L83.751 58.3296C83.3342 56.7736 83.7811 55.1135 84.9227 53.977Z" fill="#667AFA"/>
<path opacity="0.75" d="M45.9785 115.037L34.9717 103.981L45.9758 92.9227C47.1123 91.7807 48.7728 91.3335 50.3291 91.7505L95.9811 103.981L50.3311 116.209C48.7751 116.626 47.115 116.179 45.9785 115.037Z" fill="#667AFA"/>
<path opacity="0.75" d="M107.038 153.982L95.9817 164.989L84.9238 153.985C83.7818 152.848 83.3346 151.188 83.7516 149.632L95.9817 103.98L108.21 149.63C108.627 151.186 108.18 152.846 107.038 153.982Z" fill="#667AFA"/>
<path opacity="0.75" d="M146.069 92.9219L157.076 103.979L146.072 115.036C144.936 116.178 143.275 116.626 141.719 116.209L96.0667 103.979L141.717 91.7502C143.273 91.3334 144.933 91.7803 146.069 92.9219Z" fill="#667AFA"/>
</g>
<g clip-path="url(#clip1_1415_9)">
<path d="M276.215 58.3269C266.034 58.3269 257.615 62.8242 251.153 71.819L250.37 71.6235V58.3269H226.875V160.007H250.37V96.848C251.937 87.4621 263.097 79.8361 274.844 79.8361H292.315V58.3269H276.215Z" fill="#374CD2"/>
<path d="M295.849 120.313C295.849 132.632 300.157 142.8 308.772 151.012C317.387 159.029 328.155 163.136 340.882 163.136C353.608 163.136 364.377 159.029 372.796 151.012C381.411 142.8 385.719 132.632 385.719 120.313V97.8257C385.719 85.5067 381.411 75.3387 372.796 67.3216C364.377 59.109 353.608 55.0027 340.882 55.0027C328.155 55.0027 317.387 59.109 308.772 67.3216C300.157 75.3387 295.849 85.5067 295.849 97.8257V120.313ZM362.223 122.268C362.223 133.414 353.217 141.626 340.882 141.626C328.547 141.626 319.345 133.414 319.345 122.268V95.8703C319.345 84.7246 328.547 76.512 340.882 76.512C353.217 76.512 362.223 84.7246 362.223 95.8703V122.268Z" fill="#374CD2"/>
<path d="M466.742 119.139C466.742 131.067 456.756 140.453 444.226 140.453C431.695 140.453 422.101 132.827 422.101 121.095V58.3269H398.606V119.139C398.606 131.654 402.326 142.017 409.57 150.035C417.01 158.052 426.213 161.962 436.981 161.962C449.316 161.962 460.281 155.314 465.959 145.146L466.938 145.342L467.329 160.007H490.237V58.3269H466.742V119.139Z" fill="#374CD2"/>
<path d="M556.401 138.498C547.199 138.498 542.696 134.978 542.696 128.134V79.8361H567.757V58.3269H542.696V34.8622H519.396V58.3269H501.188V79.8361H519.201V124.223C519.201 147.101 532.71 160.007 556.989 160.007H569.715V138.498H556.401Z" fill="#374CD2"/>
<path d="M625.649 46.5945C627.803 46.5945 629.565 44.8347 629.565 42.6838V27.0407C629.565 24.8897 627.803 23.1299 625.649 23.1299H609.986C607.832 23.1299 606.07 24.8897 606.07 27.0407V42.6838C606.07 44.8347 607.832 46.5945 609.986 46.5945H625.649ZM629.565 65.5618C629.565 61.4555 626.433 58.3269 622.321 58.3269H585.708V77.8807H606.07V140.453H583.75V160.007H651.298V140.453H629.565V65.5618Z" fill="#374CD2"/>
<path d="M717.317 44.6391V23.1299H700.675C676.592 23.1299 663.083 35.6444 662.887 58.3269H642.916V79.8361H662.887L663.083 160.007H686.382V79.8361H711.444V58.3269H686.382V55.0027C686.382 48.1588 690.885 44.6391 700.088 44.6391H717.317Z" fill="#374CD2"/>
<path d="M765.726 46.5945C767.879 46.5945 769.642 44.8347 769.642 42.6838V27.0407C769.642 24.8897 767.879 23.1299 765.726 23.1299H750.062C747.909 23.1299 746.146 24.8897 746.146 27.0407V42.6838C746.146 44.8347 747.909 46.5945 750.062 46.5945H765.726ZM769.642 65.5618C769.642 61.4555 766.509 58.3269 762.397 58.3269H725.784V77.8807H746.146V140.453H723.826V160.007H791.375V140.453H769.642V65.5618Z" fill="#374CD2"/>
<path d="M843.108 163.136C851.136 163.136 858.772 160.985 866.016 156.683C873.456 152.381 878.939 146.906 882.267 140.453L861.513 130.676C858.968 136.933 850.744 141.626 842.913 141.626C829.794 141.626 820.201 133.414 820.201 122.268V95.8703C820.201 84.9201 829.403 76.903 841.934 76.903C849.178 76.903 856.814 81.0093 859.947 87.071L880.309 76.903C876.981 70.6458 871.498 65.5618 864.254 61.4555C857.01 57.3492 849.765 55.3938 842.129 55.3938C829.011 55.3938 818.243 59.5001 809.628 67.5172C801.013 75.5343 796.705 85.5067 796.705 97.8257V120.313C796.705 132.632 801.209 142.8 810.019 151.012C818.83 159.029 829.99 163.136 843.108 163.136Z" fill="#374CD2"/>
</g>
<defs>
<clipPath id="clip0_1415_9">
<rect width="191.959" height="191.959" fill="white" transform="translate(0 8)"/>
</clipPath>
<clipPath id="clip1_1415_9">
<rect width="655.688" height="161.812" fill="white" transform="translate(226.875 23)"/>
</clipPath>
</defs>
</svg>